<?xml version="1.0" encoding="utf-8"?>
<!-- Generator: Adobe Illustrator 27.0.1, SVG Export Plug-In . SVG Version: 6.00 Build 0)  -->
<svg version="1.1" id="Calque_1" xmlns="http://www.w3.org/2000/svg" xmlns:xlink="http://www.w3.org/1999/xlink" x="0px" y="0px"
	 viewBox="0 0 1080 1080" style="enable-background:new 0 0 1080 1080;" xml:space="preserve">
<style type="text/css">
	.st0{fill-rule:evenodd;clip-rule:evenodd;fill:#EEBC4E;}
	.st1{fill:#EEBC4E;}
</style>
<path class="st0" d="M735.8,528.6L735.8,528.6c-1.1,0.1-2.1,0.1-3.1,0l-5.9,0v0c-27.5,0-54.9,0.1-82.4,0.1l-51.9,119.1L559.4,570
	l35.8-82.3c4.3-12.4,16-20.6,29-20.6l139.3,0l3.8,0h81.9c13.1,0,24.8,8.2,29,20.5l80.6,185.1c6.7,15.4-0.5,33.7-15.9,40.4
	c-4.3,1.9-8.9,2.7-13.5,2.5l-192.7-0.3l-192.7,0.3c-1.4,0.1-2.8,0-4.1-0.1c-1.4,0.1-2.8,0.2-4.1,0.1l-16.8,0l-33.4-71.9l-50.1-115.1
	c-27.5,0-55-0.1-82.4-0.1v0l-5.9,0c-1,0-2.1,0-3.1,0h0c-0.3,0-0.6,0-0.8,0h-0.2c-30.8,0-61.5,0.1-92.3,0.1l-54.7,125.5l151.5-0.2
	l98.7,0.2l27.1,61.4l-130.3-0.2l-192.7,0.3c-4.7,0.2-9.3-0.7-13.5-2.5c-15.4-6.7-22.6-25.1-15.9-40.4l80.6-185
	c4.3-12.4,16-20.6,29-20.6h85.7l9.5,0l72.5-166.5c4.3-12.4,16-20.6,29-20.6h85.7l31.2,0l108,0c13.1,0,24.8,8.2,29,20.5l58.9,135.1
	h-67l-41-94c-30.8,0-61.5-0.1-92.3-0.1h-0.2c-30.8,0-61.5,0.1-92.3,0.1L393,467.1h62.7c13.1,0,24.8,8.2,29,20.5l31.4,72.1l36.6,94.4
	H597l144.3-0.2l142.6,0.2l-54.6-125.5c-30.8,0-61.5-0.1-92.3-0.1h-0.2C736.4,528.6,736.1,528.6,735.8,528.6z"/>
<g>
	<path class="st1" d="M539.3,31.5c68.8,0,135.5,13.5,198.2,40c60.6,25.6,115.1,62.4,161.9,109.1c46.8,46.8,83.5,101.2,109.1,161.9
		c26.5,62.8,40,129.5,40,198.2s-13.5,135.5-40,198.2c-25.6,60.6-62.4,115.1-109.1,161.9c-46.8,46.8-101.2,83.5-161.9,109.1
		c-62.8,26.5-129.5,40-198.2,40s-135.5-13.5-198.2-40c-60.6-25.6-115.1-62.4-161.9-109.1C132.4,854.1,95.7,799.6,70,739
		c-26.5-62.8-40-129.5-40-198.2s13.5-135.5,40-198.2c25.6-60.6,62.4-115.1,109.1-161.9S280.4,97.1,341,71.5
		C403.8,45,470.5,31.5,539.3,31.5 M539.3,1.5C241.4,1.5,0,242.9,0,540.7S241.4,1080,539.3,1080s539.3-241.4,539.3-539.3
		S837.1,1.5,539.3,1.5L539.3,1.5z"/>
</g>
</svg>
