<svg width="20" height="20" viewBox="0 0 20 20" fill="none" xmlns="http://www.w3.org/2000/svg">
<path d="M14.9165 14.493C14.6998 13.8263 14.0748 13.3346 13.3332 13.3346H12.4998V10.8346C12.4998 10.6136 12.412 10.4017 12.2558 10.2454C12.0995 10.0891 11.8875 10.0013 11.6665 10.0013H6.6665V8.33464H8.33317C8.55418 8.33464 8.76615 8.24684 8.92243 8.09056C9.07871 7.93428 9.1665 7.72232 9.1665 7.5013V5.83464H10.8332C11.2752 5.83464 11.6991 5.65904 12.0117 5.34648C12.3242 5.03392 12.4998 4.61 12.4998 4.16797V3.8263C13.4969 4.22827 14.3817 4.86586 15.0785 5.6845C15.7753 6.50313 16.2634 7.47843 16.501 8.52689C16.7385 9.57536 16.7184 10.6658 16.4425 11.7048C16.1666 12.7438 15.643 13.7005 14.9165 14.493ZM9.1665 16.6096C5.87484 16.2013 3.33317 13.4013 3.33317 10.0013C3.33317 9.48464 3.39984 8.98464 3.50817 8.50964L7.49984 12.5013V13.3346C7.49984 13.7767 7.67543 14.2006 7.98799 14.5131C8.30055 14.8257 8.72448 15.0013 9.1665 15.0013M9.99984 1.66797C8.90549 1.66797 7.82185 1.88352 6.81081 2.30231C5.79976 2.7211 4.8811 3.33492 4.10728 4.10875C2.54448 5.67155 1.6665 7.79116 1.6665 10.0013C1.6665 12.2114 2.54448 14.3311 4.10728 15.8939C4.8811 16.6677 5.79976 17.2815 6.81081 17.7003C7.82185 18.1191 8.90549 18.3346 9.99984 18.3346C12.21 18.3346 14.3296 17.4567 15.8924 15.8939C17.4552 14.3311 18.3332 12.2114 18.3332 10.0013C18.3332 8.90695 18.1176 7.82332 17.6988 6.81227C17.28 5.80123 16.6662 4.88257 15.8924 4.10875C15.1186 3.33492 14.1999 2.7211 13.1889 2.30231C12.1778 1.88352 11.0942 1.66797 9.99984 1.66797Z" fill="#111111"/>
</svg>
