<?xml version="1.0" encoding="utf-8"?>
<!-- Generator: Adobe Illustrator 25.0.0, SVG Export Plug-In . SVG Version: 6.00 Build 0)  -->
<svg version="1.1" id="mene-brand" xmlns="http://www.w3.org/2000/svg" xmlns:xlink="http://www.w3.org/1999/xlink" x="0px" y="0px"
	 viewBox="0 0 91 22" style="enable-background:new 0 0 91 22;" xml:space="preserve">
<path d="M16,4h2v18h-2V8l-6,11H8L2,8v14H0V4h2l7,13L16,4z M27,22V4h15v2H29v6h12v2H29v6h13v2H27z M65,19V4h2v18h-1.8L53,7v15h-2V4h2
	L65,19z M76,22V4h15v2H78v6h12v2H78v6h13v2H76z M76,0h15v1H76V0z"/>
</svg>
