<?xml version="1.0" encoding="UTF-8" standalone="no"?>
<svg width="946px" height="10px" viewBox="0 0 946 10" version="1.1" xmlns="http://www.w3.org/2000/svg" xmlns:xlink="http://www.w3.org/1999/xlink">
    <!-- Generator: Sketch 50.2 (55047) - http://www.bohemiancoding.com/sketch -->
    <title>top border</title>
    <desc>Created with Sketch.</desc>
    <defs>
        <rect id="path-1" x="0" y="0" width="948" height="10"></rect>
    </defs>
    <g id="v4" stroke="none" stroke-width="1" fill="none" fill-rule="evenodd">
        <g id="Kitco_LandingP_v4_gold" transform="translate(-210.000000, -2704.000000)">
            <g id="signals-span" transform="translate(0.000000, 2540.000000)">
                <g id="main-box" transform="translate(210.000000, 164.000000)">
                    <g id="top-border">
                        <mask id="mask-2" fill="white">
                            <use xlink:href="#path-1"></use>
                        </mask>
                        <g id="Path"></g>
                        <path d="M706.016402,-1.17489352e-13 C706.005525,0.165261807 706,0.331985725 706,0.5 C706,4.64213562 709.357864,8 713.5,8 C717.642136,8 721,4.64213562 721,0.5 C721,0.331985725 720.994475,0.165261807 720.983598,-1.16850973e-13 L736.016402,0 C736.005525,0.165261807 736,0.331985725 736,0.5 C736,4.64213562 739.357864,8 743.5,8 C747.642136,8 751,4.64213562 751,0.5 C751,0.331985725 750.994475,0.165261807 750.983598,-1.04694031e-13 L766.016402,0 C766.005525,0.165261807 766,0.331985725 766,0.5 C766,4.64213562 769.357864,8 773.5,8 C777.642136,8 781,4.64213562 781,0.5 C781,0.331985725 780.994475,0.165261807 780.983598,-1.04694031e-13 L796.016402,0 C796.005525,0.165261807 796,0.331985725 796,0.5 C796,4.64213562 799.357864,8 803.5,8 C807.642136,8 811,4.64213562 811,0.5 C811,0.331985725 810.994475,0.165261807 810.983598,-1.16850973e-13 L826.016402,0 C826.005525,0.165261807 826,0.331985725 826,0.5 C826,4.64213562 829.357864,8 833.5,8 C837.642136,8 841,4.64213562 841,0.5 C841,0.331985725 840.994475,0.165261807 840.983598,-1.16850973e-13 L856.016402,0 C856.005525,0.165261807 856,0.331985725 856,0.5 C856,4.64213562 859.357864,8 863.5,8 C867.642136,8 871,4.64213562 871,0.5 C871,0.331985725 870.994475,0.165261807 870.983598,-1.04694031e-13 L886.016402,0 C886.005525,0.165261807 886,0.331985725 886,0.5 C886,4.64213562 889.357864,8 893.5,8 C897.642136,8 901,4.64213562 901,0.5 C901,0.331985725 900.994475,0.165261807 900.983598,-1.16850973e-13 L916.016402,0 C916.005525,0.165261807 916,0.331985725 916,0.5 C916,4.64213562 919.357864,8 923.5,8 C927.642136,8 931,4.64213562 931,0.5 C931,0.331985725 930.994475,0.165261807 930.983598,-1.04694031e-13 L946,0 L946,532 L0,532 L0,0 L15.0164023,0 C15.0055247,0.165261807 15,0.331985725 15,0.5 C15,4.64213562 18.3578644,8 22.5,8 C26.6421356,8 30,4.64213562 30,0.5 C30,0.331985725 29.9944753,0.165261807 29.9835977,-1.16850973e-13 L45.0164023,0 C45.0055247,0.165261807 45,0.331985725 45,0.5 C45,4.64213562 48.3578644,8 52.5,8 C56.6421356,8 60,4.64213562 60,0.5 C60,0.331985725 59.9944753,0.165261807 59.9835977,-1.16850973e-13 L75.0164023,0 C75.0055247,0.165261807 75,0.331985725 75,0.5 C75,4.64213562 78.3578644,8 82.5,8 C86.6421356,8 90,4.64213562 90,0.5 C90,0.331985725 89.9944753,0.165261807 89.9835977,-1.14158683e-13 L105.016402,0 C105.005525,0.165261807 105,0.331985725 105,0.5 C105,4.64213562 108.357864,8 112.5,8 C116.642136,8 120,4.64213562 120,0.5 C120,0.331985725 119.994475,0.165261807 119.983598,-1.16850973e-13 L135.016402,0 C135.005525,0.165261807 135,0.331985725 135,0.5 C135,4.64213562 138.357864,8 142.5,8 C146.642136,8 150,4.64213562 150,0.5 C150,0.331985725 149.994475,0.165261807 149.983598,-1.14158683e-13 L165.016402,0 C165.005525,0.165261807 165,0.331985725 165,0.5 C165,4.64213562 168.357864,8 172.5,8 C176.642136,8 180,4.64213562 180,0.5 C180,0.331985725 179.994475,0.165261807 179.983598,-1.16850973e-13 L195.016402,0 C195.005525,0.165261807 195,0.331985725 195,0.5 C195,4.64213562 198.357864,8 202.5,8 C206.642136,8 210,4.64213562 210,0.5 C210,0.331985725 209.994475,0.165261807 209.983598,-1.14158683e-13 L225.016402,0 C225.005525,0.165261807 225,0.331985725 225,0.5 C225,4.64213562 228.357864,8 232.5,8 C236.642136,8 240,4.64213562 240,0.5 C240,0.331985725 239.994475,0.165261807 239.983598,-1.16850973e-13 L256.016402,0 C256.005525,0.165261807 256,0.331985725 256,0.5 C256,4.64213562 259.357864,8 263.5,8 C267.642136,8 271,4.64213562 271,0.5 C271,0.331985725 270.994475,0.165261807 270.983598,-1.04694031e-13 L286.016402,0 C286.005525,0.165261807 286,0.331985725 286,0.5 C286,4.64213562 289.357864,8 293.5,8 C297.642136,8 301,4.64213562 301,0.5 C301,0.331985725 300.994475,0.165261807 300.983598,-1.04694031e-13 L316.016402,0 C316.005525,0.165261807 316,0.331985725 316,0.5 C316,4.64213562 319.357864,8 323.5,8 C327.642136,8 331,4.64213562 331,0.5 C331,0.331985725 330.994475,0.165261807 330.983598,-1.14158683e-13 L346.016402,0 C346.005525,0.165261807 346,0.331985725 346,0.5 C346,4.64213562 349.357864,8 353.5,8 C357.642136,8 361,4.64213562 361,0.5 C361,0.331985725 360.994475,0.165261807 360.983598,-1.14158683e-13 L376.016402,0 C376.005525,0.165261807 376,0.331985725 376,0.5 C376,4.64213562 379.357864,8 383.5,8 C387.642136,8 391,4.64213562 391,0.5 C391,0.331985725 390.994475,0.165261807 390.983598,-1.14158683e-13 L406.016402,0 C406.005525,0.165261807 406,0.331985725 406,0.5 C406,4.64213562 409.357864,8 413.5,8 C417.642136,8 421,4.64213562 421,0.5 C421,0.331985725 420.994475,0.165261807 420.983598,7.44404538e-14 L436.016402,0 C436.005525,0.165261807 436,0.331985725 436,0.5 C436,4.64213562 439.357864,8 443.5,8 C447.642136,8 451,4.64213562 451,0.5 C451,0.331985725 450.994475,0.165261807 450.983598,-1.14158683e-13 L466.016402,0 C466.005525,0.165261807 466,0.331985725 466,0.5 C466,4.64213562 469.357864,8 473.5,8 C477.642136,8 481,4.64213562 481,0.5 C481,0.331985725 480.994475,0.165261807 480.983598,-1.04694031e-13 L496.016402,0 C496.005525,0.165261807 496,0.331985725 496,0.5 C496,4.64213562 499.357864,8 503.5,8 C507.642136,8 511,4.64213562 511,0.5 C511,0.331985725 510.994475,0.165261807 510.983598,-1.94289029e-16 L526.016402,0 C526.005525,0.165261807 526,0.331985725 526,0.5 C526,4.64213562 529.357864,8 533.5,8 C537.642136,8 541,4.64213562 541,0.5 C541,0.331985725 540.994475,0.165261807 540.983598,-1.16850973e-13 L556.016402,0 C556.005525,0.165261807 556,0.331985725 556,0.5 C556,4.64213562 559.357864,8 563.5,8 C567.642136,8 571,4.64213562 571,0.5 C571,0.331985725 570.994475,0.165261807 570.983598,-1.04694031e-13 L586.016402,0 C586.005525,0.165261807 586,0.331985725 586,0.5 C586,4.64213562 589.357864,8 593.5,8 C597.642136,8 601,4.64213562 601,0.5 C601,0.331985725 600.994475,0.165261807 600.983598,-1.04694031e-13 L616.016402,0 C616.005525,0.165261807 616,0.331985725 616,0.5 C616,4.64213562 619.357864,8 623.5,8 C627.642136,8 631,4.64213562 631,0.5 C631,0.331985725 630.994475,0.165261807 630.983598,-1.16850973e-13 L646.016402,0 C646.005525,0.165261807 646,0.331985725 646,0.5 C646,4.64213562 649.357864,8 653.5,8 C657.642136,8 661,4.64213562 661,0.5 C661,0.331985725 660.994475,0.165261807 660.983598,-1.04694031e-13 L676.016402,0 C676.005525,0.165261807 676,0.331985725 676,0.5 C676,4.64213562 679.357864,8 683.5,8 C687.642136,8 691,4.64213562 691,0.5 C691,0.331985725 690.994475,0.165261807 690.983598,-1.16850973e-13 L706.016402,0 Z" id="white-background" fill="#FFFFFF" mask="url(#mask-2)"></path>
                    </g>
                </g>
            </g>
        </g>
    </g>
</svg>