<svg xmlns="http://www.w3.org/2000/svg" width="425.1" height="195.369" viewBox="0 0 425.1 195.369">
  <g id="_404" data-name="404" transform="translate(-577.505 -485.648)">
    <path id="Path_547" data-name="Path 547" d="M1595.684,798.153a7.032,7.032,0,0,0,5.382-2.08,7.368,7.368,0,0,0,1.958-5.26V775.156h6.433L1565.41,718.28a8.174,8.174,0,0,0-.552,3.052V736.99h-28.135l17.155-33.6-26.524-34.25-30.509,60.267q-4.163,8.074-4.159,14.924v18.546l31.539,12.28h40.634v15.658c0,.057.006.11.006.166l18.423,7.173Z" transform="translate(-614.854 -123.276)"/>
    <g id="Group_69" data-name="Group 69" transform="translate(877.831 645.739)">
      <g id="Group_68" data-name="Group 68" transform="translate(0 0)">
        <path id="Path_548" data-name="Path 548" d="M1500.024,985.772h24.2l-31.539-12.281v4.941Q1492.685,985.773,1500.024,985.772Z" transform="translate(-1492.685 -973.492)"/>
        <path id="Path_549" data-name="Path 549" d="M1719.969,1066.308h11.09l-18.423-7.173a7.307,7.307,0,0,0,1.951,5.094A7.022,7.022,0,0,0,1719.969,1066.308Z" transform="translate(-1640.457 -1031.03)"/>
      </g>
    </g>
    <g id="Group_71" data-name="Group 71" transform="translate(912.499 485.648)">
      <g id="Group_70" data-name="Group 70">
        <path id="Path_550" data-name="Path 550" d="M1624.853,565.077l36.18-70.866a9.48,9.48,0,0,0,1.224-3.914q0-4.645-7.339-4.648H1627.76a11.775,11.775,0,0,0-5.5,1.1,7.082,7.082,0,0,0-2.691,2.08,46.463,46.463,0,0,0-2.079,4.159l-19.156,37.84Z" transform="translate(-1598.329 -485.648)"/>
        <path id="Path_551" data-name="Path 551" d="M1759.007,783h-7.1V767.344a7.381,7.381,0,0,0-1.957-5.26,7.047,7.047,0,0,0-5.382-2.08h-23.488a7.037,7.037,0,0,0-5.382,2.08,6.927,6.927,0,0,0-1.406,2.208l44.047,56.876h.662q7.339,0,7.339-7.34V790.341Q1766.347,783,1759.007,783Z" transform="translate(-1676.241 -669.971)"/>
      </g>
    </g>
    <path id="Path_552" data-name="Path 552" d="M1198.774,550.625a51.317,51.317,0,0,0-7.065-8.465q-15.661-15.167-40.368-15.169t-40.368,15.169q-15.66,15.172-15.658,39.145v35.642l40.124,16.226V581.3q0-8.314,4.282-13.211t11.621-4.893a14.749,14.749,0,0,1,11.5,4.893q4.4,4.9,4.4,13.211v41.511Z" transform="translate(-347.885 -27.776)" fill="#eebc4e"/>
    <path id="Path_553" data-name="Path 553" d="M1389.575,688.193v-68.5q0-17.755-8.593-30.679l-31.53,72.19v22.9l39.328,14.433A65.324,65.324,0,0,0,1389.575,688.193Z" transform="translate(-518.624 -69.443)"/>
    <path id="Path_554" data-name="Path 554" d="M1113.334,852.85a13.928,13.928,0,0,1-7.973-4.438q-4.283-4.771-4.281-13.089V818.443l-40.124-16.225v32.861q0,23.979,15.658,39.145a51.736,51.736,0,0,0,21.844,12.683Z" transform="translate(-324.802 -212.684)"/>
    <path id="Path_555" data-name="Path 555" d="M1244.023,888.766v4.341q0,8.32-4.281,13.089t-11.622,4.771a19.3,19.3,0,0,1-3.648-.333L1209.6,944.69a65.935,65.935,0,0,0,18.523,2.485q24.708,0,40.368-15.169a50.063,50.063,0,0,0,14.863-28.808Z" transform="translate(-424.664 -270.83)"/>
    <path id="Path_556" data-name="Path 556" d="M694.939,722.405h-7.1V706.747a7.382,7.382,0,0,0-1.957-5.26,7.047,7.047,0,0,0-5.382-2.08H657.017a7.036,7.036,0,0,0-5.382,2.08,7.366,7.366,0,0,0-1.957,5.26v15.658H621.542l26.787-52.468-36.708-14.293-29.957,59.176q-4.163,8.073-4.159,14.923v23.487q0,7.34,7.339,7.34h64.833v15.658a7.354,7.354,0,0,0,1.957,5.26,7.022,7.022,0,0,0,5.382,2.08H680.5a7.033,7.033,0,0,0,5.382-2.08,7.369,7.369,0,0,0,1.957-5.26V760.571h7.1q7.34,0,7.339-7.34V729.745Q702.278,722.405,694.939,722.405Z" transform="translate(0 -114.211)"/>
    <path id="Path_557" data-name="Path 557" d="M804.323,592.027l26.548-52a9.484,9.484,0,0,0,1.224-3.915q0-4.645-7.34-4.648H797.6a11.775,11.775,0,0,0-5.5,1.1,7.084,7.084,0,0,0-2.691,2.08,46.437,46.437,0,0,0-2.079,4.159l-19.708,38.93Z" transform="translate(-127.723 -30.781)"/>
  </g>
</svg>
