<?xml version="1.0" encoding="UTF-8"?><svg id="Layer_1" xmlns="http://www.w3.org/2000/svg" viewBox="0 0 1024 1024"><defs><style>.cls-1{fill:#f5f5f5;}.cls-2{fill:#f0b310;}</style></defs><rect class="cls-1" width="1024" height="1024"/><path class="cls-2" d="M632.37,548.38c58.92-39.12,97.88-106.01,97.88-181.88,0-120.35-97.9-218.25-218.25-218.25s-218.25,97.9-218.25,218.25c0,75.87,38.96,142.76,97.88,181.88-133.32,49.2-228.83,177.17-228.83,327.37h58.2c0-160.46,130.54-291,291-291s291,130.54,291,291h58.2c0-150.2-95.5-278.17-228.83-327.37Zm-120.37-21.83c-88.25,0-160.05-71.8-160.05-160.05s71.8-160.05,160.05-160.05,160.05,71.8,160.05,160.05-71.8,160.05-160.05,160.05Z"/></svg>