<?xml version="1.0" encoding="utf-8"?>
<!-- Generator: Adobe Illustrator 27.0.1, SVG Export Plug-In . SVG Version: 6.00 Build 0)  -->
<svg version="1.1" id="Calque_1" xmlns="http://www.w3.org/2000/svg" xmlns:xlink="http://www.w3.org/1999/xlink" x="0px" y="0px"
	 viewBox="0 0 822.2 612" style="enable-background:new 0 0 822.2 612;" xml:space="preserve">
<style type="text/css">
	.st0{fill:#F9C432;}
	.st1{fill:#FFFFFF;}
	.st2{fill-rule:evenodd;clip-rule:evenodd;fill:#FFFFFF;}
</style>
<path class="st0" d="M746.8,349.1H463.4c-3.4,0-6.2-3.2-6.2-7v-79.9c0-3.9,2.8-7,6.2-7H768l-19.2,91.7
	C748.8,348,747.9,349.1,746.8,349.1z"/>
<path class="st1" d="M445.1,247.8c-0.9-1.5-1.7-2.6-2.4-3.2c-0.4-0.3-0.8-0.6-1.4-0.9c1.4-0.1,2.5-0.6,3.4-1.5
	c0.9-0.9,1.3-1.9,1.3-3.1c0-0.8-0.3-1.6-0.7-2.4c-0.5-0.7-1.2-1.3-2-1.6c-0.9-0.3-2.3-0.4-4.1-0.4h-5.6V251h2.6v-6.9h1.5
	c1,0,1.6,0.2,2.1,0.6c0.7,0.5,1.6,1.8,2.7,3.8l1.4,2.6h3.2L445.1,247.8z M439.3,241.9h-3.2v0h0v-4.9h3c1.3,0,2.2,0.1,2.6,0.3
	c0.2,0.1,0.5,0.2,0.7,0.4c0.2,0.1,0.3,0.3,0.5,0.5c0.3,0.4,0.4,0.8,0.4,1.3c0,0.8-0.3,1.4-0.8,1.8
	C441.9,241.6,440.8,241.9,439.3,241.9z"/>
<path class="st1" d="M425.2,242.9c0-8.3,6.8-15.1,15.1-15.1l0,0c8.4,0,15.1,6.8,15.1,15.1l0,0c0,8.3-6.8,15.1-15.1,15.1l0,0
	C431.9,258,425.2,251.2,425.2,242.9L425.2,242.9z M427.4,242.9c0,7.1,5.8,12.9,12.9,12.9l0,0c7.2,0,12.9-5.8,12.9-12.9l0,0
	c0-7.1-5.8-12.9-12.9-12.9l0,0C433.1,229.9,427.4,235.7,427.4,242.9L427.4,242.9z"/>
<g>
	<path d="M522.6,291.7l-12.1,22.9c-2.4,0.3-4.4,0.3-6.7,0l-12.2-23.1v37.2c-2.7,0.3-6.6,0.3-9.3,0v-53.2c2.8-0.3,7.4-0.3,10.1,0
		l14.9,28.6l15-28.6c2.8-0.3,7.1-0.3,9.8,0v53.2c-2.7,0.3-6.6,0.3-9.3,0V291.7z"/>
	<path d="M544.3,275.4c2.8-0.3,6.7-0.3,9.3,0v53.2c-2.7,0.3-6.6,0.3-9.3,0V275.4z"/>
	<path d="M575.4,290.6v38.1c-2.9,0.4-6.3,0.4-9.3,0v-53.2c3.2-0.3,7.1-0.3,10.2,0l21.5,38.9v-38.9c3.3-0.3,6.3-0.3,9.3,0v53.2
		c-3.4,0.3-7.1,0.3-10.6,0L575.4,290.6z"/>
	<path d="M619.5,275.4c2.8-0.3,6.7-0.3,9.3,0v53.2c-2.7,0.3-6.6,0.3-9.3,0V275.4z"/>
	<path d="M650.6,290.6v38.1c-2.9,0.4-6.3,0.4-9.3,0v-53.2c3.2-0.3,7.1-0.3,10.2,0l21.5,38.9v-38.9c3.3-0.3,6.3-0.3,9.3,0v53.2
		c-3.4,0.3-7.1,0.3-10.6,0L650.6,290.6z"/>
	<path d="M721.7,308.1H713c-0.4-2.2-0.4-5.4,0-7.7h17.8v26.8c-5.6,1.7-11.3,2.5-16,2.5c-13,0-21.4-3.6-21.4-14.7v-25.8
		c0-11.2,8.4-14.7,21.4-14.7c4.9,0,9.5,0.3,14.9,1.3c0.3,2.2,0.3,5.5,0,7.6c-4.7-0.7-8.7-1-13.5-1c-7.5,0-13.5,0.8-13.5,8.6V313
		c0,7.8,5.9,8.6,13.5,8.6c1.9,0,3.7-0.1,5.5-0.3V308.1z"/>
</g>
<polygon class="st1" points="772.9,348.9 756.3,348.9 777.1,255.4 794.8,255.4 "/>
<polygon class="st0" points="797.4,348.9 780.5,348.9 801.2,255.4 818.9,255.4 "/>
<path class="st2" d="M52.4,304c0,0.3,0,0.6,0.1,1c0.1,0.4,0.3,0.7,0.6,1l41.6,42.8h23.6l-44.8-48.3l37.1-41.4H90.8l-37.1,42.5
	c-0.5,0.6-0.8,1-1,1.2C52.5,303,52.4,303.4,52.4,304L52.4,304z M432.2,302.2v-15.4c0-5.2-1.1-9.7-3.4-13.7c-2.3-3.9-5.3-7.2-9-9.8
	c-3.7-2.6-7.9-4.5-12.6-5.8c-4.6-1.3-9.3-1.9-14-1.9h-30c-4.9,0-9.7,0.8-14.4,2.3c-4.7,1.5-8.9,3.8-12.6,6.7
	c-3.7,2.9-6.7,6.5-8.9,10.6c-2.2,4.1-3.4,8.7-3.4,13.8v13.2v13.2c0,5.1,1.1,9.7,3.4,13.8c2.2,4.1,5.2,7.7,8.9,10.6
	c3.7,2.9,7.9,5.2,12.6,6.7c4.7,1.5,9.5,2.3,14.4,2.3h30c4.7,0,9.3-0.6,14-1.9c4.6-1.3,8.8-3.2,12.6-5.8c3.7-2.6,6.8-5.9,9-9.8
	c2.3-3.9,3.4-8.5,3.4-13.7V302.2L432.2,302.2z M345.8,302.2c0.1-5.2,0.7-9.9,1.7-14c1.1-4.5,3-8.3,5.6-11.4c2.6-3,6-5.3,10.1-6.9
	c4.1-1.5,9.2-2.3,15.3-2.3c6.3,0,11.5,0.7,15.8,2.2c4.2,1.5,7.6,3.8,10.2,6.8c2.6,3,4.4,6.8,5.5,11.4c1,4.1,1.5,8.8,1.6,14.1
	c-0.1,5.3-0.6,10-1.6,14.1c-1.1,4.5-2.9,8.3-5.5,11.4c-2.6,3-6,5.3-10.2,6.8c-4.2,1.5-9.5,2.2-15.8,2.2c-6.1,0-11.2-0.8-15.3-2.3
	c-4.1-1.5-7.5-3.8-10.1-6.9c-2.6-3-4.5-6.8-5.6-11.4C346.5,312.1,345.9,307.5,345.8,302.2L345.8,302.2z M261.2,288.4
	c3.5-16.8,15.2-20.7,30.5-20.7c10.4,0,14.8,0.7,24.2,5.7v-13.8c0-1.3-64.9-16.7-75.4,22.7c-3.4,12.8-3.4,27.1,0,39.9
	c10.5,39.4,75.4,23.9,75.4,22.7V331c-9.4,4.9-13.8,5.7-24.2,5.7c-15.3,0-27-3.9-30.5-20.7C259.3,306.9,259.3,297.5,261.2,288.4
	L261.2,288.4z M193.7,259.2h-10.8h-0.5h-27.3v14.9c8-1.8,16.3-3.1,26.8-3.3l1.5,0c1.7,26,1.3,52-0.9,78h0.5h0.4h10.5h10.5h0.4h0.5
	c-2.2-26-2.6-52-0.9-78l1.5,0c10.4,0.1,18.7,1.5,26.8,3.3v-14.9H205h-0.5H193.7L193.7,259.2z M124.3,259.2h11.3h11.3
	c-2.7,29.9-2.5,59.8,0,89.7h-11.3h-11.3C126.8,319,127,289.1,124.3,259.2L124.3,259.2z M30.2,259.2h11.3h11.3
	c-2.7,29.9-2.5,59.8,0,89.7H41.5H30.2C32.7,319,32.9,289.1,30.2,259.2z"/>
</svg>
